<svg xmlns="http://www.w3.org/2000/svg" width="20" height="20" viewBox="0 0 20 20"><defs><style>.a{fill:gray;}</style></defs><path class="a" d="M46.167,33.667a4.179,4.179,0,0,1,4.167,4.167v8.333a4.179,4.179,0,0,1-4.167,4.167H37.833a4.179,4.179,0,0,1-4.167-4.167V37.833a4.179,4.179,0,0,1,4.167-4.167h8.333m0-1.667H37.833A5.851,5.851,0,0,0,32,37.833v8.333A5.851,5.851,0,0,0,37.833,52h8.333A5.851,5.851,0,0,0,52,46.167V37.833A5.851,5.851,0,0,0,46.167,32Z" transform="translate(-32 -32)"/><path class="a" d="M350.58,109.17a1.247,1.247,0,1,1,.885-.365A1.25,1.25,0,0,1,350.58,109.17Z" transform="translate(-335.163 -103.337)"/><path class="a" d="M149,145.667A3.333,3.333,0,1,1,145.667,149,3.333,3.333,0,0,1,149,145.667M149,144a5,5,0,1,0,5,5A5,5,0,0,0,149,144Z" transform="translate(-139 -139)"/></svg>