<svg xmlns="http://www.w3.org/2000/svg" width="25" height="20" viewBox="0 0 25 20"><defs><style>.a{fill:gray;}</style></defs><path class="a" d="M41,66.37a10.51,10.51,0,0,1-2.945.8,5.079,5.079,0,0,0,2.257-2.792A10.3,10.3,0,0,1,37.053,65.6,5.164,5.164,0,0,0,33.308,64a5.087,5.087,0,0,0-5.128,5.047,4.855,4.855,0,0,0,.132,1.151,14.62,14.62,0,0,1-10.573-5.276,4.984,4.984,0,0,0-.7,2.536,5.034,5.034,0,0,0,2.292,4.2A5.078,5.078,0,0,1,17,71.031v.063a5.071,5.071,0,0,0,4.115,4.948,5.248,5.248,0,0,1-1.351.177,4.916,4.916,0,0,1-.964-.094,5.127,5.127,0,0,0,4.794,3.505,10.4,10.4,0,0,1-6.371,2.161A10.571,10.571,0,0,1,16,81.719,14.514,14.514,0,0,0,23.851,84,14.378,14.378,0,0,0,38.457,69.635c0-.219-.006-.437-.016-.651A10.337,10.337,0,0,0,41,66.37Z" transform="translate(-16 -64)"/></svg>