<svg xmlns="http://www.w3.org/2000/svg" width="21.33" height="16" viewBox="0 0 21.33 16"><defs><style>.a{fill:gray;}</style></defs><path class="a" d="M21.187,67.533A3.239,3.239,0,0,0,18.1,64.15C15.8,64.042,13.441,64,11.036,64h-.75c-2.4,0-4.758.042-7.066.15A3.246,3.246,0,0,0,.14,67.542c-.1,1.483-.148,2.966-.146,4.449s.043,2.968.142,4.454a3.25,3.25,0,0,0,3.079,3.4c2.425.112,4.912.162,7.441.158s5.014-.044,7.441-.158a3.25,3.25,0,0,0,3.083-3.4c.1-1.487.146-2.971.142-4.458S21.287,69.019,21.187,67.533ZM8.619,76.078V67.891l6.042,4.092Z" transform="translate(0.006 -64)"/></svg>